# xmcd
#
# Track frame offsets:
#	150
#	5345
#	11495
#	26173
#	37637
#	47623
#	60035
#	83481
#	103339
#	125501
#	152947
#
# Disc length: 2329 seconds
#
# Revision: 0
# Processed by: cddbd v1.5.2PL0 Copyright (c) Steve Scherf et al.
# Submitted via: audiograbber 1.83.01
#
DISCID=7409170b
DTITLE=Robert Rankin (Various Performers) - Da-da-de-da-da-de---Album
DYEAR=2007
DGENRE=Far Fetched Soundtrack
TTITLE0=High Rankin feat' Robert Rankin - Headless in Gunnersbury
TTITLE1=High Rankin feat' Robert Rankin - Burning Rope
TTITLE2=High Rankin - Da-da-de-da-da
TTITLE3=High Rankin feat' Robert Rankin - Smart Hat Jonny
TTITLE4=Lady Raygun - Dance of The Sugar-Plum Technofairy
TTITLE5=Jon Hooker feat' Robert Rankin - Pelted with Stones
TTITLE6=Phil Cowen feat' Robert Rankin and the Woodbinettes - Some Call Me Laz
TTITLE7=Dry Rise - Sides to a Story
TTITLE8=Lady Raygun feat' Robert Rankin - Apocalypse Blues
TTITLE9=High Rankin feat' Robert Rankin - Lobster Cracking (Air on a Loom)
TTITLE10=Lady Raygun - Requiem for Jonny
EXTD=
EXTT0=
EXTT1=
EXTT2=
EXTT3=
EXTT4=
EXTT5=
EXTT6=
EXTT7=
EXTT8=
EXTT9=
EXTT10=
PLAYORDER=
